<?xml version="1.0"?>
<!-- Generated by SVGo -->
<svg width="600" height="500"
     xmlns="http://www.w3.org/2000/svg"
     xmlns:xlink="http://www.w3.org/1999/xlink">
<defs>
<pattern id="diagonalLines" x="0" y="0" width="10" height="10" patternUnits="userSpaceOnUse" patternTransform="rotate(30)" >
<line x1="0" y1="0" x2="0" y2="10" style="stroke:#FAFAFA;stroke-width:2" />
</pattern>
<marker id="loadArrow" refX="9" refY="2" markerWidth="30" markerHeight="30" orient="auto" markerUnits="userSpaceOnUse" viewBox="-2 -2 12 12" >
<path d="M0,0 L9,2 L0,4" vector-effect="non-scaling-stroke" style="stroke:#9CCC65;stroke-width:1;fill:none" />
</marker>
</defs>
<g transform="matrix(1.000000,0,0,-1.000000,150.000000,350.000000)">
<g transform="translate(0.000000 200.000000) rotate(0.000000)">
<g style="stroke-width:1;stroke:#9CCC65;fill:#9CCC6533">
<polygon points="0,0 0,50 300,50 300,0" />
<text x="0" y="0" transform="translate(0.000000 50.000000) scale(1.000000 -1.000000)" style="fill:#9CCC65" >-100.00</text>
<text x="0" y="0" transform="translate(300.000000 50.000000) scale(1.000000 -1.000000)" style="fill:#9CCC65" >-100.00</text>
<line x1="30" y1="50" x2="30" y2="0" marker-end="url(#loadArrow)" stroke="#9CCC65" />
<line x1="60" y1="50" x2="60" y2="0" marker-end="url(#loadArrow)" stroke="#9CCC65" />
<line x1="90" y1="50" x2="90" y2="0" marker-end="url(#loadArrow)" stroke="#9CCC65" />
<line x1="120" y1="50" x2="120" y2="0" marker-end="url(#loadArrow)" stroke="#9CCC65" />
<line x1="150" y1="50" x2="150" y2="0" marker-end="url(#loadArrow)" stroke="#9CCC65" />
<line x1="180" y1="50" x2="180" y2="0" marker-end="url(#loadArrow)" stroke="#9CCC65" />
<line x1="210" y1="50" x2="210" y2="0" marker-end="url(#loadArrow)" stroke="#9CCC65" />
<line x1="240" y1="50" x2="240" y2="0" marker-end="url(#loadArrow)" stroke="#9CCC65" />
<line x1="270" y1="50" x2="270" y2="0" marker-end="url(#loadArrow)" stroke="#9CCC65" />
</g>
</g>
<g style="stroke:#FAFAFA;stroke-width:2;fill:none">
<line x1="0" y1="0" x2="0" y2="200" id="bar__col1" />
<line x1="300" y1="0" x2="300" y2="200" id="bar__col2" />
<line x1="0" y1="200" x2="300" y2="200" id="bar__beam" />
<circle cx="0" cy="0" r="10" id="node__nodeA" />
<circle cx="300" cy="0" r="10" id="node__nodeB" />
<circle cx="0" cy="200" r="10" id="node__nodeC" />
<circle cx="300" cy="200" r="10" id="node__nodeD" />
</g>
<g style="stroke:#FAFAFA;stroke-width:2;fill:none">
<g transform="translate(300,0) scale(1,-1)">
<rect x="-40" y="0" width="80" height="40" stroke="none" fill="url(#diagonalLines)" />
<line x1="-40" y1="0" x2="40" y2="0" />
</g>
<g transform="translate(0,0) scale(1,-1)">
<rect x="-40" y="0" width="80" height="40" stroke="none" fill="url(#diagonalLines)" />
<line x1="-40" y1="0" x2="40" y2="0" />
</g>
</g>
</g>
</svg>
